<svg xmlns="http://www.w3.org/2000/svg" xmlns:xlink="http://www.w3.org/1999/xlink" viewBox="0 0 248 87"><defs><style>.a{fill:none;}.b{clip-path:url(#a);}.c{fill:url(#b);}.d{clip-path:url(#c);}.e{fill:url(#d);}.f{clip-path:url(#e);}.g{fill:url(#f);}.h{fill:#ffffff;}.i{fill:#faa71c;}</style><clipPath id="a"><path class="a" d="M29.71,44.48l-1.35-.13,3-6L30,37.68l4.94-4.51-1-1.07,6.41-2.48-.59-1.52h7V26.94l6,2.34L53.25,28l5,4.56.9-1,3,5.93,1.32-.66L64,43.58l1.51-.14-1.81,6.38,1.3.37-4,5.33,1.14.86-5.72,3.55.74,1.2-6.52,1.22.27,1.43-6.6-1.24L44,64l-5.71-3.54-.75,1.21-4.05-5.37-1.22.92-1.85-6.5-1.36.39ZM44.54,20.09l5.68,5.18L36.49,19.95l-1,2.63,7,2.71H28.19v2.82h8.3L22,33.7l1,2.63,7.32-2.83L19.31,43.58l1.9,2.09,6.13-5.59L20.56,53.71,23.08,55l3.48-7L25.2,62.68l2.81.26.74-8,4.09,14.36,2.71-.77-2.25-7.91,9.17,12.14,2.25-1.7-4.79-6.35,12.7,7.86,1.49-2.4L47.27,66,62,68.73,62.55,66l-7.91-1.48L69.4,61.72l-.52-2.77L61,60.41l12.68-7.85-1.49-2.4-6.78,4.2,9-11.94-2.25-1.7-4.7,6.22,4-14.19L68.81,32l-2.28,8-1.4-15.13-2.81.26.74,8L56.36,19.67l-2.53,1.26,3.49,7L46.44,18Z"/></clipPath><linearGradient id="b" x1="527.68" y1="825.8" x2="528.68" y2="825.8" gradientTransform="translate(-29068.86 -45475.91) scale(55.12)" gradientUnits="userSpaceOnUse"><stop offset="0" stop-color="#f58220"/><stop offset="0.07" stop-color="#f79023"/><stop offset="0.16" stop-color="#faa727"/><stop offset="0.33" stop-color="#faa727"/><stop offset="0.39" stop-color="#fbb34a"/><stop offset="0.46" stop-color="#fcc172"/><stop offset="0.5" stop-color="#fdc682"/><stop offset="0.54" stop-color="#fcc172"/><stop offset="0.61" stop-color="#fbb249"/><stop offset="0.66" stop-color="#faa727"/><stop offset="0.83" stop-color="#faa727"/><stop offset="0.9" stop-color="#f89724"/><stop offset="1" stop-color="#f58220"/></linearGradient><clipPath id="c"><path class="a" d="M44,69.44,59.5,72.33l.18-1L44.22,68.47Zm-8.45-2.68L49,75l.52-.84L36.11,65.92ZM52.7,67.91l.18,1L68.34,66l-.18-1Zm-24-6.72,9.48,12.55.79-.6L29.48,60.59Zm18.88-1.55,8.9,1.66.18-1-8.9-1.66Zm-5.15-.74,7.7,4.77.52-.84-7.7-4.77Zm17.93,5.47.52.85,13.37-8.28-.52-.84Zm-7.9-6.88.18,1,8.9-1.66-.18-1ZM37.9,56.32l5.46,7.23.79-.6-5.46-7.23ZM24.17,53.53l4.31,15.13,1-.27L25.12,53.26Zm10.35-1.21L37,61l1-.27L35.47,52Zm21.82,2.44.52.84,7.7-4.77L64,50ZM32.08,56.46l1,.09.83-9-1-.09Zm34.19,1.8.79.6L76.54,46.3l-.79-.6Zm-44.9,2.24,1,.09,1.45-15.66-1-.09Zm37.69-9.76.79.6,5.46-7.23-.79-.6Zm-29.84-.34.89.44,4-8.11-.89-.44Zm-.63-6.77.67.73L36,38.25l-.67-.73Zm31.59,2.44,1,.27,2.48-8.71-1-.27Zm-42.4,4.23.89.44,7-14.08-.89-.44Zm51.84.18,1,.27,4.31-15.13-1-.27ZM30.69,37.08,31,38l8.44-3.27-.36-.93Zm27.84-4.75.84,9,1-.09-.84-9ZM35,32.56h9.06v-1H35ZM18,39.39l.67.74,11.62-10.6-.67-.73ZM52.9,29l4,8.11.89-.44-4-8.11Zm-12.66.17,8.44,3.27.36-.93-8.44-3.27ZM46.6,28l6.69,6.1.67-.73-6.69-6.1Zm21.71-1.59,1.45,15.66,1-.09L69.3,26.3Zm-46,2.91.36.93,14.67-5.68L37,23.62Zm7.71-7H45.74v-1H30ZM59.87,20l7,14.08.89-.44-7-14.08Zm-20.6-2.16,14.67,5.68.36-.93L39.64,16.87ZM49.82,17,61.45,27.6l.67-.73L50.49,16.27Z"/></clipPath><linearGradient id="d" x1="528.51" y1="826.55" x2="529.51" y2="826.55" gradientTransform="translate(-31033.83 -48517.07) scale(58.75)" xlink:href="#b"/><clipPath id="e"><path class="a" d="M45.9,62l10.81,2L55.1,65l.1.17-3.19.6Zm-1.52,4.24-4.3-5.7,9.26,5.74-1.77.33,0,.24Zm7.55-5,10.81-2-1.13,1.5.17.13L59,62.61ZM37,63.86l-2-7.06,6.77,9-1.81-.34,0,.23ZM66.73,52.6l-.54,1.89.13,0L64.38,57.1l-7,1.32ZM31,59l.65-7,3,10.46-1.47-.91-.11.17Zm-3.8-6.4,3.15-6.32-1,10.56-1-1.39-.25.19Zm40.61-7.44L68,47l.3,0-.85,3-6.19,3.83ZM26,44.85l5.49-5L26.48,50,25.93,48l-.2.06Zm40.27-7,.75,1.5.23-.11.3,3.23-4.16,5.5ZM26.45,40.34h-.14l1.5-3,6.55-2.54-8.08,7.36Zm35.62-9.19,1.44,1.31.08-.09,1.5,3-2,7ZM29.79,33.33l-.29-.14,2.68-2.44h7.54L29,34.9Zm2.55,11.39-1.16-.11,2.53-5.07-1.2-.6,4.18-3.81-.84-.92,5.45-2.11-.52-1.34h5.94v-1l5.07,2,.42-1.07,4.24,3.87.77-.85,2.49,5,1.15-.57.53,5.69,1.32-.12L61.2,49.1l1.11.32L58.9,53.93l1,.75-4.85,3,.64,1-5.51,1L50.4,61l-5.6-1-.23,1.24-4.84-3-.65,1-3.43-4.55-1.07.81L33,50l-1.18.34ZM55.71,26.52l1.92.74,0-.12,2.39,2.18.68,7.3Zm-20.42,1.4-.15-.17,3.19-1.24,6.2,2.4H34.19Zm5.57-2.38,1.74-.67-.15-.39H45.7l-.13.14,5.26,4.8Zm7.29-1.07h2.28l2.75,1,0,0L56.4,32Zm2-4.2,5,4.53L41.24,19.43l-.5,1.29,6.09,2.36H32.44v1.39h7.33l-.83.32-.21-.08-.07.19L25.21,30.11l.5,1.3L32,29,21,39.09l.93,1,5.42-4.94-.23.46-.18.07.06.16-6.5,13,1.24.62,2.89-5.8.11.13L23.39,58.25l1.38.13.65-7,.14.47-.05.1.09,0,3.94,13.87,1.34-.38-2-7,.3.4,0,.35.32,0,8.66,11.47,1.11-.84-4-5.23.2-.06,12.35,7.64.73-1.18-6-3.72.4.07.11.14.13-.1,14.25,2.66.26-1.37-7-1.3.35-.07.2.13.11-.18,14.22-2.66-.25-1.36-6.93,1.29.29-.18.22,0,0-.2,12.24-7.58L70.5,55.5l-6,3.68.22-.3.22,0,0-.2,8.68-11.5-1.11-.84-4.11,5.45.09-.32,4-14-1.34-.38-2,7.06-.06-.64.16-.22-.2-.15L67.72,28.88,66.34,29l.59,6.4-.32-.09L60.22,22.49,59,23.11,62,29.24l-.15-.14V29h-.11L51.07,19.24Z"/></clipPath><linearGradient id="f" x1="527.19" y1="825.34" x2="528.19" y2="825.34" gradientTransform="translate(-28002.02 -43824.84) scale(53.15)" xlink:href="#b"/></defs><title>BankservAfrica logo</title><g class="b"><rect class="c" x="19.31" y="18.01" width="55.12" height="54.77"/></g><g class="d"><rect class="e" x="17.78" y="16.27" width="58.76" height="58.77"/></g><g class="f"><rect class="g" x="20.48" y="19.24" width="53.15" height="52.99"/></g><path class="h" d="M162,51.28h-1.1l-4-9.62h1.79l2.08,5a17.31,17.31,0,0,1,.73,2h0c.21-.63.45-1.26.77-2l2.16-5h1.77Zm-11-8.15c1.16,0,1.65.67,1.65,1.45a1.48,1.48,0,0,1-1.69,1.5h-1V43.13Zm4.6,8.07a28.6,28.6,0,0,0-3-4.26v0a2.6,2.6,0,0,0,1.79-2.51c0-1.43-.92-2.73-3.36-2.73h-2.81V51.2H150V47.55h1c.39,0,1.32,1.51,2.65,3.65Zm-11.05-8.07H141v2.51h3.53v1.43H141v2.65h3.89V51.2h-5.58V41.66h5.77Zm-8.3,5.44c0-3.47-4.32-2.63-4.32-4.6,0-.73.71-1.1,1.53-1.1a4.6,4.6,0,0,1,2.24.67l0-1.53a5.68,5.68,0,0,0-2.41-.51c-1.91,0-3,1.1-3,2.55a2.51,2.51,0,0,0,.76,1.92c1.24,1.16,3.52,1.12,3.52,2.71,0,.88-.82,1.36-1.83,1.36a4.3,4.3,0,0,1-2.1-.67l-.61,1.25a5.2,5.2,0,0,0,2.91.77c1.73,0,3.34-1,3.34-2.83M125.8,51.2l-3.63-4.11h0V51.2h-1.69V41.66h1.69v4.2h0l3.4-4.2h1.94l-3.87,4.73,4.3,4.81Zm-9.17,0V41.66h-1.71v5.28c0,.73,0,1.2,0,1.67h0a21.19,21.19,0,0,0-1.51-2.14l-3.61-4.81H108V51.2h1.69V45.68c0-.67,0-1.18,0-1.61h0a22.61,22.61,0,0,0,1.39,2L115,51.2Zm-15.28-5.66c-.22-.59-.39-1.06-.49-1.43h0a13.86,13.86,0,0,1-.49,1.43l-.73,2h2.49Zm2.22,5.66-.94-2.26H99.07l-.88,2.26H96.38l3.95-9.58h1.08l3.95,9.58Zm-11-3.79c0,1.3-.92,2.24-2.67,2.24H88.08V45.37H90c1.65,0,2.51.88,2.51,2m-3-7.6c1.51,0,2.22.75,2.22,1.94a2,2,0,0,1-2.12,2.06H88.08v-4Zm4.85,7.5a2.88,2.88,0,0,0-2.45-3v0a3,3,0,0,0,1.65-2.83,3.21,3.21,0,0,0-3.49-3.2H86.33V51.2h3.52c3.42,0,4.55-2,4.55-3.89"/><path class="i" d="M211.54,50.53a5.86,5.86,0,0,1-3.14.86,4.54,4.54,0,0,1-4.67-4.81,5.06,5.06,0,0,1,7.5-4.46l0,1.55a4.17,4.17,0,0,0-2.4-.73,3.28,3.28,0,0,0-3.32,3.54,3.18,3.18,0,0,0,3.18,3.45,4.48,4.48,0,0,0,2.39-.71Zm-10.93.67h-1.69V41.66h1.69Zm-8.83-8.07h-1.06v2.94h1a1.48,1.48,0,0,0,1.69-1.49c0-.79-.49-1.45-1.65-1.45m4.59,8.07h-2c-1.34-2.14-2.26-3.65-2.65-3.65h-1V51.2H189V41.66h2.81c2.43,0,3.36,1.29,3.36,2.73a2.59,2.59,0,0,1-1.79,2.51,32.67,32.67,0,0,1,3,4.3m-10.44-9.54-.51,1.47h-3.57v2.61h3.53v1.45h-3.53v4h-1.69V41.66Zm-12.11,4.65-1.35-3.91a13,13,0,0,1-.49-1.61c-.14.47-.29,1-.53,1.59L170,46.31Zm3.73,4.89h-1.83l-1.32-3.38h-5l-1.22,3.38H166.4l5-13h1.12Zm45.37,0h-1.79l-.94-2.26h-3.56l-.88,2.26h-1.81l3.95-9.58H219Zm-3.26-3.67-.75-2c-.22-.59-.39-1.06-.49-1.44-.14.37-.3.83-.53,1.44l-.73,2Z"/></svg>
