<?xml version="1.0" encoding="UTF-8"?>
<svg id="Layer_2" data-name="Layer 2" xmlns="http://www.w3.org/2000/svg" viewBox="0 0 15.28 11">
  <defs>
    <style>
      .cls-1 {
        fill: #5f5f5f;
      }

      .cls-2 {
        fill: #606060;
      }
    </style>
  </defs>
  <path class="cls-2" d="M14.54,11h-3.53l-3.87-5.72.04-.07c1.24-.02,2.49-.02,3.74-.01.33,0,.51.05.83-.14.97-.58.59-2.01-.51-2.12h-5.64s-.13-.13-.13-.13L3.64.07l.04-.05h7.73c4.2.15,5.37,5.78,1.59,7.62-.09.04-.52.18-.51.26l2.06,3.09Z"/>
  <path class="cls-1" d="M9.84,11H0v-2.83s.03-.05.04-.06h7.7s.19.12.19.12c.57.84,1.18,1.65,1.75,2.49.06.09.14.18.17.28Z"/>
  <path class="cls-2" d="M6.99,6.95l-.13.02-6.79-.02-.06-.05v-2.78c.03-.15.52-.06.64-.06,1.1.01,2.21.01,3.31,0,.27,0,.56-.05.83-.03.14.01.21.03.3.14.32.38.69.98.98,1.4.27.38.6.81.83,1.2.02.03.09.15.07.17Z"/>
  <path class="cls-2" d="M4.19,2.93H.06s-.04-.04-.05-.05V.12C0,.03.08.02.15.02c.59-.05,1.26.04,1.85,0,.15,0,.24.09.33.2l1.86,2.71Z"/>
</svg>