<?xml version="1.0" encoding="UTF-8"?>
<svg id="Layer_2" data-name="Layer 2" xmlns="http://www.w3.org/2000/svg" viewBox="0 0 826.73 595.2">
  <defs>
    <style>
      .cls-1 {
        fill: #019540;
      }
    </style>
  </defs>
  <path class="cls-1" d="M786.8,595.2h-191.04l-209.4-309.63,2.06-3.78c67.29-.85,134.96-.95,202.38-.66,18.1.08,27.75,2.48,44.8-7.71,52.58-31.4,31.74-108.87-27.33-114.83l-305.09-.58-7.23-6.54L196.86,3.93l1.97-2.79,418.28-.26c227.19,8.39,290.32,313.22,86.2,412.74-4.91,2.39-28.23,9.77-27.81,14.33l111.3,167.25Z"/>
  <path class="cls-1" d="M532.49,595.2H.07v-153.26c0-.49,1.46-2.82,2.11-3.22l416.4-.62,10.47,7.06c30.58,45.46,63.82,89.21,94.45,134.63,3.2,4.75,7.44,9.87,9,15.41Z"/>
  <path class="cls-1" d="M378.4,376.25l-6.83,1.33-367.23-1.19-3.35-2.91L.32,223.25c2.43-8.09,28.75-3.39,35.4-3.31,59.64.71,119.62.64,179.26,0,14.79-.16,30.1-2.64,45.08-1.36,7.72.66,11.12,1.83,16.13,7.66,17.51,20.39,37.2,52.85,53.12,75.81,14.36,20.71,32.44,43.86,45.11,65.05.85,1.42,4.6,8.27,3.98,9.15Z"/>
  <path class="cls-1" d="M226.82,158.57H3.2c-.22,0-2.21-1.93-2.49-2.52L0,6.5C-.05,1.54,4.15,1.24,8.16.88c31.92-2.83,67.96,2.28,100.33,0,8.28.06,13.14,4.98,17.9,10.9l100.43,146.79Z"/>
</svg>